# xmcd CD database file
#
# Track frame offsets:
#	183
#	14190
#	28703
#	43038
#	63340
#	77728
#	90483
#	102223
#	116493
#	130890
#	143340
#	157303
#	169963
#	181853
#	195435
#	209098
#	222375
#	237365
#	251678
#	265435
#	280570
#	294605
#
# Disc length: 4113 seconds
#
# Revision: 0
# Processed by: cddbd v1.5.2PL0 Copyright (c) Steve Scherf et al.
# Submitted via: CDex 1.70beta1
#
DISCID=4a100f16
DTITLE=Various Artist - The Great Vocalists (Topaz)
DYEAR=1900
DGENRE=Jazz
TTITLE0=Baby Doll - Fletcher Henderson
TTITLE1=Creole Love Call - Duke Ellington and His Orchestra
TTITLE2=I'm Crazy 'Bout My Baby (And My Baby's Crazy 'Bout Me) - Ted Lewis
TTITLE3=St. Louis Blues - Bing Crosby
TTITLE4=That's My Home - Louis Armstrong and His Orchestra
TTITLE5=I Gotta Right to Sing the Blues - Benny Goodman and His Orchestra
TTITLE6=Sing Me a Swing Song (And Let Me Dance) - Ella Fitzgerald
TTITLE7=Smoke Dreams - Mildred Bailey
TTITLE8=Good Morning Blues - Count Basie Orchestra
TTITLE9=He's Funny That Way - Billie Holiday and Her Orchestra
TTITLE10='Tain't What You Do (It's the Way That You Do It) - Jimmie Lunceford and His Orchestra
TTITLE11=Blame It on My Last Affair - Count Basie Orchestra
TTITLE12=Stormy Weather - Ivie Anderson
TTITLE13=Let's Fly Away - Bunny Berigan
TTITLE14=Piney Brown Blues - Big Joe Turner
TTITLE15=Sweet Lorraine - Nat King Cole
TTITLE16=St. James Infirmary - Cab Calloway and His Orchestra
TTITLE17=Stormy Monday Blues - Billy Eckstine
TTITLE18=Knock Me a Kiss - Roy Eldridge
TTITLE19=Murder, He Says - Gene Krupa and His Orchestra
TTITLE20=Five Guys Named Moe - Louis Jordan
TTITLE21=Cherry Red - Eddie "Cleanhead" Vinson
EXTD=
EXTT0=
EXTT1=
EXTT2=
EXTT3=
EXTT4=
EXTT5=
EXTT6=
EXTT7=
EXTT8=
EXTT9=
EXTT10=
EXTT11=
EXTT12=
EXTT13=
EXTT14=
EXTT15=
EXTT16=
EXTT17=
EXTT18=
EXTT19=
EXTT20=
EXTT21=
PLAYORDER=
